<?xml version="1.0" encoding="UTF-8" standalone="no"?> <svg xmlns="http://www.w3.org/2000/svg" viewBox="0 0 64 64" fill="#da3934"><g id="Layer_56" data-name="Layer 56"><path d="M60.27,51.29a5.84,5.84,0,0,0-5.35-3.61c-2.33,0-3.57,1.61-5,3.43a21.29,21.29,0,0,1-3.21,3.46c-3.67,3-7.9,3.45-15.56,4.17-5.68.53-11-.94-12.58-3.49a4,4,0,0,1-.1-3.79c.65-1.21,2.76-1.06,6.14-.72,3,.31,6.8.7,10.57-.29,5.22-1.36,9.22-4.36,18-10.92l.8-.61c5.69-4.25,5.53-7.15,4.5-9.69s-7.87-2.42-11.58-1.92a20.86,20.86,0,0,0,.16-2.54v-.4a.91.91,0,0,0,0-.17v-.05h0a19.12,19.12,0,0,0-.3-3.06l-.16-.83h0v0c-.12-.55-.25-1.08-.41-1.6A21.84,21.84,0,0,0,29,3.32h0A21.87,21.87,0,0,0,25.41,3h-.13L24.23,3l-.45,0h-.22c-.27,0-.52,0-.79.08h-.2c-.36.05-.72.1-1.07.17h0l-.5.09a22,22,0,0,0-4.67,1.51,23.39,23.39,0,0,0-2.43,1.28,21.62,21.62,0,0,0-9.56,12.6,22,22,0,0,0-.58,2.7,22.73,22.73,0,0,0-.24,3.25,21.22,21.22,0,0,0,.27,3.44,20.9,20.9,0,0,0,1.49,5.15h0c.22.53.47,1.05.74,1.56a21.61,21.61,0,0,0,3,4.34H9a21.89,21.89,0,0,0,8.75,5.95,21.07,21.07,0,0,0,4.64,1.13,20.71,20.71,0,0,0,2.86.19c.7,0,1.37,0,2.07-.09A21.78,21.78,0,0,0,46.53,29.39c4.65-.8,9.74-.24,10.1.62.55,1.35,1.38,3.4-3.85,7.31l-.81.6c-8.56,6.41-12.47,9.33-17.31,10.6-3.42.89-6.84.54-9.85.23-3.64-.37-6.79-.69-8.11,1.77a6,6,0,0,0,.17,5.8c2.05,3.26,7.86,5,14.46,4.41C39.39,60,43.83,59.56,48,56.11a23,23,0,0,0,3.5-3.77c1.37-1.73,2.15-2.64,3.46-2.66a3.86,3.86,0,0,1,3.43,2.25c.6,1.79-1.21,5.36-6,7.13A1,1,0,0,0,52.67,61a1,1,0,0,0,.34-.06C58.78,58.83,61.27,54.29,60.27,51.29ZM30.08,5.59l.1,0c.42.11.85.23,1.26.37l.46.17c.29.1.58.2.87.32l.52.23.76.35.53.28.71.4.51.31c.23.15.45.29.67.45l.49.34c.22.16.43.33.64.5l.46.37.61.55.42.39c.21.2.4.41.6.62l.37.39c.21.24.41.48.61.73s.19.23.28.34c.28.37.55.74.81,1.12v0c.26.39.5.79.73,1.2a3.9,3.9,0,0,1,.19.35c.16.29.32.59.46.89s.14.32.21.48.24.54.35.82.13.35.19.53.19.54.27.81.11.38.17.57.07.3.11.46a19.35,19.35,0,0,1-4.36-1.67,19.82,19.82,0,0,1-10-12.72Zm-3.24-.52.38,0,.72.1A21.83,21.83,0,0,0,39.16,20.08a21.63,21.63,0,0,0,5.7,2c0,.2.06.4.08.6s0,.27,0,.4l0,.52a18.37,18.37,0,0,1-3.29-.47l-.07,0a19.72,19.72,0,0,1-8.06-4,20,20,0,0,1-3.66-4c0-.32-.07-.63-.13-.94l-.16-.86A21.39,21.39,0,0,0,26.51,5.9a7.89,7.89,0,0,1-.08-.85ZM6.18,19.67c.15-.56.31-1.11.51-1.64a2.33,2.33,0,0,1,.11-.28q.27-.73.6-1.44l.12-.25c.25-.51.52-1,.81-1.49a3.45,3.45,0,0,0,.2-.32c.3-.48.62-.95,1-1.4l0,0c.35-.45.72-.89,1.1-1.31l.27-.29a16.56,16.56,0,0,1,1.2-1.17l.22-.19q.58-.51,1.2-1l.26-.19c.46-.33.94-.64,1.43-.93l.14-.08A19.74,19.74,0,0,1,6.14,19.81S6.17,19.71,6.18,19.67Zm-.58,7c0-.6-.09-1.22-.09-1.87a20.86,20.86,0,0,1,.16-2.46A21.69,21.69,0,0,0,17.6,6.65l0-.09a19.84,19.84,0,0,1,2.28-.8l.38-.11.2-.05c0,.25-.06.5-.07.75a.77.77,0,0,0,0,.15v.07c0,.5,0,1,0,1.36s0,.81,0,1.14a17.31,17.31,0,0,1-.26,2.06.61.61,0,0,1,0,.13A19.86,19.86,0,0,1,5.63,26.83Zm1.25,5.28-.06-.15c-.21-.56-.4-1.13-.56-1.71,0-.1-.05-.2-.08-.3-.08-.32-.14-.64-.2-1A21.87,21.87,0,0,0,22.08,11.62l0-.14a17.56,17.56,0,0,0,.28-2.3c.05-.55.06-1.09.06-1.49V7.57c0-.16,0-.33,0-.43a6.08,6.08,0,0,0,0-.61,12.26,12.26,0,0,1,.14-1.33l.23,0,.21,0h.16l.5,0c0,.12.09.24.13.37a17.93,17.93,0,0,1,.76,2.62l.15.83A16.75,16.75,0,0,1,25,11.73c0,.13,0,.25,0,.37v.12a18.34,18.34,0,0,1-.31,3.44.5.5,0,0,0,0,.13A19.78,19.78,0,0,1,7.08,31.9Zm5.08,7.44A21.3,21.3,0,0,0,16.76,38q-.09,1-.09,2a22.28,22.28,0,0,0,.17,2.71A20.2,20.2,0,0,1,11.93,39.36Zm-1.71-1.79c-.15-.17-.29-.35-.43-.52l-.38-.49c-.2-.26-.38-.53-.56-.8s-.22-.31-.32-.48-.36-.6-.53-.91c-.08-.14-.16-.28-.23-.42l-.06-.12a21.78,21.78,0,0,0,18.9-17.69l0-.14A21,21,0,0,0,27,12.22V12.1c0-.17,0-.33,0-.46l0-.41a18,18,0,0,1,.73,2.51l.16.83c.07.36.12.72.16,1.09.07.56.1,1.11.12,1.74,0,.13,0,.25,0,.37v.12a18.34,18.34,0,0,1-.31,3.44s0,.11,0,.12c-.12.64-.25,1.21-.4,1.74A19.83,19.83,0,0,1,10.22,37.57Zm11.34,6.6-.57-.1-.25,0q-.79-.2-1.59-.45l-.16,0a20.28,20.28,0,0,1-.32-3.58,19.71,19.71,0,0,1,.25-3,21.87,21.87,0,0,0,9.93-11.72,20,20,0,0,0,2.34,1.58A21.73,21.73,0,0,0,21.56,44.17Zm4.89.32-.94,0h-.3c-.53,0-1.06,0-1.58-.07h-.09a19.74,19.74,0,0,1,9.72-16.65,21.71,21.71,0,0,0,5.37,1.61A21.81,21.81,0,0,0,26.45,44.49ZM44.38,29.83c0,.18-.1.35-.15.52s-.19.65-.3,1l-.21.56c-.12.29-.23.58-.36.87s-.17.37-.26.56-.27.54-.41.81l-.3.54q-.22.39-.48.78a5.39,5.39,0,0,1-.33.5c-.17.26-.36.51-.55.76s-.22.31-.34.46l-.68.78c-.1.12-.2.24-.31.35a19.34,19.34,0,0,1-2.21,2c-.12.1-.25.19-.38.28s-.55.41-.83.6l-.49.31c-.26.17-.52.33-.79.48l-.54.29-.81.41-.57.25-.84.34c-.19.07-.39.15-.59.21l-.88.28-.59.16c-.32.09-.64.15-1,.22l-.54.11-.13,0A19.83,19.83,0,0,1,44.28,29.72l.13,0Zm.6-3.45c0,.15,0,.29,0,.44s-.07.46-.1.69a19.87,19.87,0,0,1-2.71.19,19.48,19.48,0,0,1-12.66-4.61c.1-.41.19-.83.28-1.32,0,0,0-.08,0-.1a22.13,22.13,0,0,0,.31-3.12,20.32,20.32,0,0,0,2.23,2.12,21.67,21.67,0,0,0,8.93,4.42h0a19.62,19.62,0,0,0,3.72.52C45,25.88,45,26.13,45,26.38Z"/></g></svg>
